<svg xmlns="http://www.w3.org/2000/svg"  viewBox="0 0 100 100" width="50px" height="50px"><path fill="#f9dbd2" d="M50,12c-20.987,0-38,17.013-38,38s17.013,38,38,38s38-17.013,38-38S70.987,12,50,12z"/><path fill="#f1bc19" d="M78,13c-0.552,0-1,0.448-1,1s0.448,1,1,1s1-0.448,1-1S78.552,13,78,13z"/><path fill="#f1bc19" d="M84,12c-2.209,0-4,1.791-4,4s1.791,4,4,4s4-1.791,4-4S86.209,12,84,12z"/><path fill="#f1bc19" d="M86,30c-0.552,0-1,0.448-1,1s0.448,1,1,1s1-0.448,1-1S86.552,30,86,30z"/><path fill="#ee3e54" d="M14,24c-1.105,0-2,0.895-2,2s0.895,2,2,2s2-0.895,2-2S15.105,24,14,24z"/><path fill="#fbcd59" d="M78,75c-1.105,0-2,0.895-2,2s0.895,2,2,2s2-0.895,2-2S79.105,75,78,75z M17,74 c-2.209,0-4,1.791-4,4s1.791,4,4,4s4-1.791,4-4S19.209,74,17,74z"/><path fill="#ee3e54" d="M24,81c-1.105,0-2,0.895-2,2s0.895,2,2,2s2-0.895,2-2S25.105,81,24,81z"/><path fill="#fff" d="M66.483,76.034c-1.371,0-2.483,1.112-2.483,2.483S65.112,81,66.483,81s2.483-1.112,2.483-2.483 S67.854,76.034,66.483,76.034z M16,47c-0.552,0-1,0.448-1,1s0.448,1,1,1c0.552,0,1-0.448,1-1S16.552,47,16,47z"/><path fill="#fff" d="M80,64c-1.105,0-2,0.895-2,2s0.895,2,2,2s2-0.895,2-2S81.105,64,80,64z"/><path fill="#f1bc19" d="M49.311,41.109h1.357c0.943,0,1.737-0.704,1.851-1.64l1.665-13.74c0-2.059-1.669-3.729-3.729-3.729 h-0.932c-2.059,0-3.729,1.669-3.729,3.729l1.665,13.74C47.573,40.405,48.368,41.109,49.311,41.109z"/><path fill="#f1bc19" d="M42.339,45.832l0.618-1.208c0.429-0.839,0.165-1.867-0.617-2.395l-11.473-7.742 c-1.833-0.938-4.08-0.212-5.018,1.621l-0.425,0.83c-0.938,1.833-0.212,4.08,1.621,5.018l12.991,4.776 C40.921,47.058,41.91,46.671,42.339,45.832z"/><path fill="#f1bc19" d="M57.339,45.832l-0.618-1.208c-0.429-0.839-0.165-1.867,0.617-2.395l11.473-7.742 c1.833-0.938,4.08-0.212,5.018,1.621l0.425,0.83c0.938,1.833,0.212,4.08-1.621,5.018l-12.991,4.776 C58.758,47.058,57.769,46.671,57.339,45.832z"/><path fill="#f1bc19" d="M50.368,57.828h-1.357c-0.943,0-1.737,0.704-1.851,1.64l-1.665,13.74 c0,2.059,1.669,3.729,3.729,3.729h0.932c2.059,0,3.729-1.669,3.729-3.729l-1.665-13.74C52.105,58.532,51.311,57.828,50.368,57.828z"/><path fill="#f1bc19" d="M57.339,53.105l-0.618,1.208c-0.429,0.839-0.165,1.867,0.617,2.395l11.473,7.742 c1.833,0.938,4.08,0.212,5.018-1.621l0.425-0.83c0.938-1.833,0.212-4.08-1.621-5.018l-12.991-4.776 C58.758,51.879,57.769,52.266,57.339,53.105z"/><path fill="#f1bc19" d="M42.339,53.105l0.618,1.208c0.429,0.839,0.165,1.867-0.617,2.395l-11.473,7.742 c-1.833,0.938-4.08,0.212-5.018-1.621l-0.425-0.83c-0.938-1.833-0.212-4.08,1.621-5.018l12.991-4.776 C40.921,51.879,41.91,52.266,42.339,53.105z"/><path fill="#472b29" d="M50.667,41.809h-1.357c-1.295,0-2.39-0.97-2.545-2.256L45.1,25.812 c-0.005-2.525,1.981-4.513,4.423-4.513h0.932c2.442,0,4.429,1.987,4.429,4.429l-1.671,13.824 C53.057,40.839,51.963,41.809,50.667,41.809z M49.523,22.7c-1.67,0-3.028,1.358-3.028,3.028l1.66,13.656 c0.071,0.584,0.567,1.023,1.156,1.023h1.357c0.588,0,1.085-0.439,1.156-1.023l1.666-13.74c-0.005-1.586-1.364-2.944-3.034-2.944 H49.523z"/><path fill="#472b29" d="M40.677,47.547c-0.294,0-0.592-0.051-0.882-0.157l-12.991-4.776 c-2.251-1.146-3.114-3.82-2.002-5.994l0.424-0.829c1.112-2.174,3.784-3.036,5.959-1.926l11.546,7.785 c1.074,0.725,1.439,2.141,0.849,3.293l-0.618,1.209C42.513,47.028,41.616,47.547,40.677,47.547z M29.19,34.764 c-1.09,0-2.175,0.604-2.717,1.664l-0.424,0.829c-0.76,1.486-0.17,3.315,1.316,4.076l12.913,4.742 c0.552,0.205,1.17-0.037,1.438-0.562l0.618-1.208c0.268-0.523,0.102-1.166-0.386-1.495l-11.473-7.742 C30.07,34.861,29.629,34.764,29.19,34.764z"/><path fill="#472b29" d="M59.002,47.547c-0.939,0-1.836-0.518-2.286-1.396V46.15l-0.618-1.208 c-0.591-1.152-0.226-2.568,0.848-3.293l11.473-7.742c2.247-1.154,4.92-0.291,6.032,1.882l0.425,0.83 c1.112,2.174,0.249,4.848-1.925,5.96L59.884,47.39C59.594,47.496,59.296,47.547,59.002,47.547z M57.962,45.513 c0.268,0.523,0.886,0.766,1.439,0.562l12.99-4.776c1.41-0.727,2-2.555,1.24-4.041l-0.425-0.83 c-0.762-1.487-2.589-2.077-4.076-1.317l-11.4,7.699c-0.488,0.329-0.653,0.972-0.385,1.495L57.962,45.513z"/><path fill="#472b29" d="M50.156,77.637h-0.932c-2.442,0-4.429-1.986-4.429-4.429l1.671-13.824 c0.156-1.286,1.25-2.256,2.545-2.256h1.357c1.295,0,2.39,0.97,2.545,2.256l1.666,13.74C54.584,75.65,52.598,77.637,50.156,77.637z M49.011,58.528c-0.588,0-1.085,0.44-1.156,1.023l-1.666,13.74c0.005,1.586,1.364,2.944,3.034,2.944h0.932 c1.67,0,3.028-1.358,3.028-3.028l-1.66-13.656c-0.071-0.583-0.567-1.023-1.156-1.023H49.011z"/><path fill="#472b29" d="M70.505,65.561c-0.692,0-1.379-0.164-2.012-0.488l-11.546-7.785 c-1.074-0.724-1.438-2.14-0.848-3.293l0.618-1.207c0.59-1.153,1.953-1.687,3.167-1.24l12.991,4.777 c1.13,0.572,1.911,1.489,2.274,2.614c0.363,1.126,0.267,2.326-0.272,3.379l-0.425,0.83c-0.539,1.053-1.456,1.833-2.581,2.196 C71.423,65.489,70.963,65.561,70.505,65.561z M59,52.79c-0.426,0-0.834,0.235-1.038,0.634v0.001l-0.618,1.207 c-0.268,0.523-0.103,1.166,0.385,1.495l11.473,7.742c0.647,0.325,1.466,0.393,2.238,0.143c0.77-0.249,1.396-0.782,1.765-1.503 l0.425-0.829c0.368-0.72,0.435-1.541,0.186-2.311c-0.249-0.77-0.782-1.396-1.502-1.765l-12.913-4.743 C59.27,52.812,59.134,52.79,59,52.79z"/><path fill="#472b29" d="M29.153,65.559c-0.454,0-0.906-0.072-1.346-0.215c-1.125-0.363-2.042-1.144-2.581-2.196 l-0.424-0.829c-1.112-2.175-0.249-4.849,1.925-5.96l13.067-4.812c1.219-0.446,2.579,0.087,3.168,1.24l0.618,1.206 c0.59,1.154,0.225,2.57-0.849,3.294l-11.473,7.742C30.573,65.384,29.86,65.559,29.153,65.559z M40.678,52.79 c-0.134,0-0.269,0.022-0.401,0.071l-12.99,4.777c-1.409,0.727-2,2.555-1.239,4.042l0.424,0.828 c0.369,0.721,0.996,1.254,1.765,1.503c0.769,0.25,1.589,0.183,2.311-0.186l11.4-7.699c0.487-0.329,0.653-0.972,0.385-1.496 l-0.618-1.207C41.512,53.025,41.104,52.79,40.678,52.79z"/></svg>